<svg width="366" height="211" viewBox="0 0 366 211" fill="none" xmlns="http://www.w3.org/2000/svg">
<path d="M28.364 207.934L179.581 55.9773C180.996 54.5556 183.291 54.5556 184.686 55.9773L257.15 129.41C258.565 130.832 260.84 130.832 262.255 129.41L362.939 28.2336C364.354 26.8119 364.354 24.5255 362.939 23.1037L341.009 1.06633C339.594 -0.355442 337.319 -0.355442 335.904 1.06633L262.847 74.4795C261.433 75.9013 259.157 75.9013 257.743 74.4795L184.686 1.10475C183.271 -0.317016 180.996 -0.317016 179.581 1.10475L106.525 74.518C105.11 75.9397 102.835 75.9397 101.42 74.518L28.364 1.10475C26.9492 -0.317016 24.6739 -0.317016 23.2591 1.10475L1.06114 23.4111C-0.353714 24.8329 -0.353714 27.1193 1.06114 28.541L74.1173 101.954C75.5322 103.376 75.5322 105.662 74.1173 107.084L1.06114 180.497C-0.353714 181.919 -0.353714 184.206 1.06114 185.627L23.2591 207.934C24.6739 209.355 26.9492 209.355 28.364 207.934Z" fill="#1F1F1F"/>
<path d="M246.444 145.37L247 144.81L222.464 120.073C221.045 118.642 218.764 118.642 217.346 120.073L184.95 152.733C183.532 154.163 181.251 154.163 179.832 152.733L147.437 120.073C146.018 118.642 143.737 118.642 142.319 120.073L120.064 142.51C118.645 143.94 118.645 146.24 120.064 147.67L179.832 207.927C181.251 209.358 183.532 209.358 184.95 207.927L246.732 145.641L246.463 145.37H246.444Z" fill="#1F1F1F"/>
<path d="M298.086 119.948L275.885 142.148C274.473 143.56 274.473 145.85 275.885 147.262L336.128 207.505C337.54 208.917 339.83 208.917 341.242 207.505L363.443 185.305C364.855 183.893 364.855 181.603 363.443 180.191L303.199 119.948C301.787 118.535 299.498 118.535 298.086 119.948Z" fill="#1F1F1F"/>
</svg>
